<svg id="Default" xmlns="http://www.w3.org/2000/svg" xmlns:xlink="http://www.w3.org/1999/xlink" viewBox="0 0 1000 600"><defs><style>.cls-1{fill:none;}.cls-2{clip-path:url(#clip-path);}.cls-3{fill:#1d1d1b;}.cls-4{clip-path:url(#clip-path-3);}</style><clipPath id="clip-path"><rect class="cls-1" width="1000" height="600"/></clipPath><clipPath id="clip-path-3"><rect class="cls-1" y="600" width="1000" height="600"/></clipPath></defs><title>Go-Karaz-L-Standard</title><g class="cls-2"><g class="cls-2"><path class="cls-3" d="M503.86,414.82a24.11,24.11,0,1,1-24.11-24.11,24.11,24.11,0,0,1,24.11,24.11"/><path class="cls-3" d="M610.52,414.82a24.11,24.11,0,1,1-24.11-24.11,24.1,24.1,0,0,1,24.11,24.11"/><path class="cls-3" d="M600.81,303.22a24.12,24.12,0,0,1,20.55-11.49h9.77l-.54,1.84a107.63,107.63,0,0,1-183.3,40.52L443.58,339v7.2A24.08,24.08,0,0,1,420.42,370h-.59V184.82H393a24.11,24.11,0,0,1-24.11-23.75h74.71V299.46l90.58-120.75,5.86-7.82.24-.32a24.09,24.09,0,0,1,19.18-9.5h17.64L461.9,314.61a83.85,83.85,0,0,0,138.26-10.26Z"/><path class="cls-3" d="M443.59,345.92c0,.1,0,.21,0,.31v-.62c0,.1,0,.21,0,.31"/></g></g><g class="cls-4"><rect class="cls-3" y="600" width="1000" height="600"/></g></svg>