<svg id="Default" xmlns="http://www.w3.org/2000/svg" xmlns:xlink="http://www.w3.org/1999/xlink" viewBox="0 0 250 150">
    <defs>
        <style>.cls-1{fill:none;}.cls-2{clip-path:url(#clip-path);}.cls-3{fill:#1d1d1b00;}.cls-4{fill:#fff;}</style>
        <clipPath id="clip-path">
            <rect class="cls-1" width="250" height="150"/>
        </clipPath>
    </defs>
    <title>Go-Karaz-S-Reversed</title>
    <g class="cls-2">
        <rect class="cls-3" width="250" height="150"/>
        <g class="cls-2">
            <path class="cls-4" d="M126,103.7a6,6,0,1,1-6-6,6,6,0,0,1,6,6"/>
            <path class="cls-4" d="M152.63,103.7a6,6,0,1,1-6-6,6,6,0,0,1,6,6"/>
            <path class="cls-4"
                  d="M150.2,75.8a6,6,0,0,1,5.14-2.87h2.44c0,.16-.09.31-.13.46a26.91,26.91,0,0,1-45.83,10.13l-.92,1.24v1.8a6,6,0,0,1-5.8,5.94H105V46.21H98.25a6,6,0,0,1-6-5.94H110.9V74.86l22.64-30.18,1.46-2,.07-.08a6,6,0,0,1,4.79-2.37h4.41L115.48,78.65A21,21,0,0,0,150,76.09Z"/>
            <path class="cls-4" d="M110.9,86.48v0"/>
        </g>
    </g>
</svg>