<svg id="Default" xmlns="http://www.w3.org/2000/svg" xmlns:xlink="http://www.w3.org/1999/xlink" viewBox="0 0 4000 2400">
    <defs>
        <style>.cls-1{fill:none;}.cls-2{clip-path:url(#clip-path);}.cls-3{fill:#1d1d1b;}</style>
        <clipPath id="clip-path">
            <rect class="cls-1" width="4000" height="2400"/>
        </clipPath>
    </defs>
    <title>Go-Karaz-XXL-Standard</title>
    <g class="cls-2">
        <g class="cls-2">
            <path class="cls-3" d="M2015.44,1659.28a96.45,96.45,0,1,1-96.44-96.44,96.44,96.44,0,0,1,96.44,96.44"/>
            <path class="cls-3" d="M2442.08,1659.28a96.45,96.45,0,1,1-96.44-96.44,96.44,96.44,0,0,1,96.44,96.44"/>
            <path class="cls-3"
                  d="M2403.25,1212.87a96.43,96.43,0,0,1,82.18-45.95h39.07c-.69,2.47-1.42,4.9-2.15,7.34a430.49,430.49,0,0,1-95,166.13c-78.75,85.85-191.84,139.75-317.27,139.75-127.37,0-242-55.58-321-143.77l-14.82,19.76v28.79a96.37,96.37,0,0,1-92.66,95.12h-2.35V739.28H1571.92a96.41,96.41,0,0,1-96.42-95h298.84v553.54l362.31-483,23.43-31.26c.31-.41.63-.86,1-1.3a96.28,96.28,0,0,1,76.7-38h70.55l-460.69,614.16c61.53,77.17,156.34,126.7,262.49,126.7,123.94,0,232.43-67.55,290.55-167.74Z"/>
            <path class="cls-3" d="M1774.37,1383.68c0,.41,0,.82,0,1.24v-2.48c0,.42,0,.82,0,1.24"/>
        </g>
    </g>
</svg>